<?xml version="1.0" encoding="utf-8"?>
<!-- Generator: Adobe Illustrator 17.0.0, SVG Export Plug-In . SVG Version: 6.00 Build 0)  -->
<!DOCTYPE svg PUBLIC "-//W3C//DTD SVG 1.1//EN" "http://www.w3.org/Graphics/SVG/1.1/DTD/svg11.dtd">
<svg version="1.1" id="Layer_1" xmlns="http://www.w3.org/2000/svg" xmlns:xlink="http://www.w3.org/1999/xlink" x="0px" y="0px"
	 width="463.936px" height="463.936px" viewBox="0 0 463.936 463.936" enable-background="new 0 0 463.936 463.936"
	 xml:space="preserve">
<g>
	<g>
		<path d="M440.262,230.358c1.394,110.907-90.47,208.549-209.814,206.759c-108.976-1.634-203.126-89.034-203.263-206.541
			C27.047,112.14,123.855,21.464,238.226,23.818C352.496,26.168,441.375,120.674,440.262,230.358z M231.912,109.394
			c-6.161,0-12.323-0.048-18.483,0.03c-1.775,0.022-4.164-0.875-5.19,0.707c-1.263,1.947,0.927,3.622,1.875,5.246
			c23.508,40.251,47.053,80.48,70.614,120.701c18.427,31.458,36.928,62.872,55.266,94.381c2.14,3.677,3.074,3.85,5.23,0.009
			c6.111-10.885,12.567-21.577,18.881-32.348c5.564-9.492,5.354-18.942-0.188-28.369c-4.05-6.888-8.07-13.794-12.097-20.696
			c-24.5-41.985-48.983-83.979-73.507-125.949c-5.323-9.109-13.399-13.608-23.919-13.699
			C244.234,109.353,238.073,109.397,231.912,109.394z M184.81,284.277c-25.327,0-50.654,0.031-75.981-0.037
			c-3.362-0.009-4.79,0.429-2.61,4.054c6.951,11.565,13.541,23.349,20.611,34.839c4.657,7.569,11.627,11.832,20.73,11.839
			c47.322,0.037,94.643-0.023,141.965,0.094c4.958,0.012,4.27-1.605,2.379-4.788c-8.168-13.748-16.291-27.525-24.203-41.422
			c-1.999-3.511-4.434-4.689-8.409-4.663C234.464,284.357,209.637,284.276,184.81,284.277z M184.344,246.639
			c17.829,0,35.659-0.076,53.488,0.057c4.101,0.031,4.544-0.974,2.515-4.421c-17.837-30.288-35.559-60.644-53.335-90.968
			c-2.652-4.523-2.963-4.52-5.621,0.011c-17.62,30.029-35.225,60.067-52.822,90.11c-2.878,4.913-2.695,5.201,3.288,5.205
			C149.352,246.649,166.848,246.64,184.344,246.639z"/>
	</g>
</g>
</svg>
